<svg
  xmlns="http://www.w3.org/2000/svg"
  aria-hidden="true"
  style="position:absolute;width:0;height:0;overflow:hidden"
>
  <defs>
    <symbol
      id="icon-header-logo"
      viewBox="0 0 105 32"
    >
      <path
        d="M6.48 31.6H0V0h7.24q2.24 0 3.64.24 1.44.2 2.24.88c.8.68.893 1.107 1.08 1.96q.32 1.24.32 3.36v3.28q0 1.24-.28 2.04c-.28.8-.427.96-.72 1.28q-.4.48-.88.72-.48.2-.88.28v.16q.6.16 1.08.48.52.28.88.88c.36.6.427.933.56 1.6q.24.96.24 2.48V31.6H8v-14q0-.52-.12-.68-.12-.2-.64-.2h-.76zm0-19.96h.76q.52 0 .64-.16.12-.2.12-.72V6.44q0-.52-.12-.68-.12-.2-.64-.2h-.76zm23.222 15.28q0 1.68-.28 2.68-.24 1-.96 1.56-.68.52-1.92.68-1.2.16-3.16.16-1.92 0-3.16-.16c-1.24-.16-1.467-.333-1.92-.68q-.68-.56-.96-1.56-.24-1-.24-2.68v-14.6q0-1.68.24-2.68.28-1 .96-1.52.68-.56 1.92-.72c1.24-.16 1.88-.16 3.16-.16q1.96 0 3.16.16 1.24.16 1.92.72.72.52.96 1.52.28 1 .28 2.68zm-7.04-1.12q0 .52.12.72.12.16.6.16.52 0 .64-.16.12-.2.12-.72V13.44q0-.52-.12-.68-.12-.2-.64-.2-.48 0-.6.2-.12.16-.12.68zM38.298 0v8.72q.52-.72 1.28-1 .8-.28 1.96-.28c1.16 0 1.4.093 1.88.28q.72.24 1.08.8.4.56.52 1.52.16.92.16 2.28v14.6q0 1.4-.16 2.36-.12.92-.52 1.48c-.4.56-.653.64-1.16.8q-.76.24-1.96.24-1.36 0-2.2-.28-.84-.32-1.28-1v1.08h-5.32V0zm1.32 13.44q0-.48-.12-.68-.08-.2-.52-.2-.4 0-.6.16-.16.12-.24.4v13a1 1 0 0 0 .24.44q.2.12.6.12.44 0 .52-.2.12-.2.12-.68zm14.189-9.28h-5.68V0h5.68zm0 27.44h-5.68V7.64h5.68zm16.264 0h-5.76V13.44q0-.48-.12-.68-.08-.2-.52-.2-.4 0-.6.16-.16.12-.28.4V31.6h-5.72V7.64h5.32v1.08q.44-.68 1.28-.96.84-.32 2.2-.32 1.2 0 2 .24.84.24 1.32.8c.48.56.546.88.68 1.52q.2.92.2 2.32zm8.854 0h-5.8v-5.64h5.8zM104.573 0l-3.28 31.6h-8.16l-1.08-22.92h-.16l-1.32 22.92h-8.28L79.853 0h6.52l.68 22.16h.16L88.173 0h8l.68 22.16h.16l1-22.16z"
      />
    </symbol>
    <symbol
      id="icon-header-burger"
      viewBox="0 0 52 32"
    >
      <path d="M0 0h52.364v8.727H0zm14.545 23.273h37.818V32H14.545z" />
    </symbol>
    <symbol
      id="icon-LinkedIn-1-1"
      viewBox="0 0 32 32"
    >
      <path
        fill="#0077b5"
        d="M26.2 4H5.8C4.84 4 4 4.724 4 5.688v20.623c0 .965.84 1.688 1.8 1.688h20.4c.96 0 1.8-.724 1.8-1.688V5.688C28 4.844 27.16 4 26.2 4M11.08 24.623h-3.6V13.166h3.6zm-1.8-13.146c-1.2 0-2.04-.965-2.04-2.05s.96-2.05 2.04-2.05 2.04.965 2.04 2.05c.12 1.206-.84 2.05-2.04 2.05M24.4 24.623h-3.6v-5.548c0-1.327 0-3.015-1.8-3.015s-2.16 1.447-2.16 3.015v5.668h-3.6V13.286h3.36v1.568c.48-.965 1.68-1.809 3.36-1.809 3.6 0 4.32 2.412 4.32 5.427v6.151z"
        style="fill:var(--color1, #0077b5)"
      />
    </symbol>
    <symbol
      id="icon-Dribbble-Logo-1"
      viewBox="0 0 32 32"
    >
      <path
        fill="#e94b88"
        d="M16 29.333C8.648 29.333 2.667 23.352 2.667 16S8.648 2.667 16 2.667 29.333 8.648 29.333 16 23.352 29.333 16 29.333m11.245-11.508c-.39-.123-3.525-1.058-7.094-.487 1.49 4.093 2.096 7.427 2.212 8.12a11.4 11.4 0 0 0 4.882-7.633m-6.796 8.676c-.169-.999-.831-4.481-2.43-8.636l-.075.025c-6.424 2.238-8.73 6.693-8.934 7.112a11.37 11.37 0 0 0 11.439 1.499m-12.91-2.869c.258-.442 3.384-5.617 9.257-7.515q.222-.072.449-.135a38 38 0 0 0-.923-1.933C10.635 15.751 5.116 15.68 4.617 15.67q-.005.173-.006.348a11.35 11.35 0 0 0 2.928 7.615zm-2.687-9.947c.509.007 5.202.027 10.529-1.388a73 73 0 0 0-4.222-6.587 11.43 11.43 0 0 0-6.306 7.974zm8.479-8.74a61 61 0 0 1 4.25 6.667c4.05-1.518 5.764-3.822 5.969-4.114-1.371-1.218-3.017-2.086-4.796-2.53s-3.64-.452-5.423-.023m11.485 3.87c-.24.325-2.148 2.771-6.359 4.49a36 36 0 0 1 1.001 2.238c3.789-.477 7.555.287 7.93.367a11.33 11.33 0 0 0-2.572-7.094z"
        style="fill:var(--color2, #e94b88)"
      />
    </symbol>
    <symbol
      id="icon-Twitter-Logo-1"
      viewBox="0 0 32 32"
    >
      <path
        fill="#26a7de"
        d="M29.333 9.163q-1.38.591-3.153.788c1.051-.657 1.97-1.708 2.365-2.89-1.051.657-2.233 1.051-3.415 1.314-.92-1.051-2.365-1.708-3.941-1.708-3.021 0-5.386 2.365-5.386 5.255 0 .394 0 .788.131 1.182-4.466-.263-8.407-2.365-11.166-5.517a4.74 4.74 0 0 0-.788 2.627c0 1.839.92 3.415 2.365 4.466-.92 0-1.708-.263-2.496-.657v.131c0 2.627 1.839 4.729 4.335 5.255-.394.131-.92.131-1.445.131-.394 0-.657 0-1.051-.131.657 2.102 2.627 3.678 4.992 3.678-1.839 1.445-4.204 2.233-6.699 2.233-.394 0-.92 0-1.314-.131 2.365 1.576 5.255 2.365 8.276 2.365 9.852 0 15.369-8.144 15.369-15.107v-.657c1.445-.657 2.365-1.576 3.021-2.627"
        style="fill:var(--color3, #26a7de)"
      />
    </symbol>
    <symbol
      id="icon-Group-80"
      viewBox="0 0 91 32"
    >
      <path
        fill="#8491a0"
        d="M55.987 5.333h-9.962c-5.978 0-10.825 4.163-10.825 10.141v7.028c4.364-8.921 14.971-15.189 20.787-17.169"
        style="fill:var(--color4, #8491a0)"
      />
      <path
        fill="#8491a0"
        d="M36.267 27.733h8.828c5.979 0 10.825-4.847 10.825-10.825V5.851c-9.217 5.117-15.524 13.084-19.654 21.882z"
        style="fill:var(--color4, #8491a0)"
      />
    </symbol>
    <symbol
      id="icon-Group-68"
      viewBox="0 0 91 32"
    >
      <path
        fill="#8491a0"
        d="M59.494 1.067H31.29a.356.356 0 0 0-.123.69l25.511 8.352q.045.015.089-.003c.044-.018.052-.032.067-.059l3.807-7.061a1.29 1.29 0 0 0-.028-1.285 1.31 1.31 0 0 0-1.117-.635zM30.94 30.59a.35.35 0 0 0 .261.334.35.35 0 0 0 .388-.171l4.907-9.09a1.3 1.3 0 0 1 1.145-.683H50.16a1.3 1.3 0 0 0 1.145-.684l3.741-6.936a.103.103 0 0 0-.041-.139.1.1 0 0 0-.051-.014H32.241a1.3 1.3 0 0 0-1.301 1.301v16.081z"
        style="fill:var(--color4, #8491a0)"
      />
    </symbol>
    <symbol
      id="icon-Group-67"
      viewBox="0 0 91 32"
    >
      <path
        fill="#8491a0"
        d="M28.28 15.038c-1.477 4.495-5.09 7.027-9.975 7.027-6.076 0-10.838-4.821-10.838-10.992C7.467 4.985 12.229-.001 18.1-.001c5.46 0 10.715 4.495 10.674 11.973H10.998c.451 4.373 3.818 6.947 7.307 6.947 2.997 0 5.131-1.43 6.281-3.882zm-3.366-6.17c-.862-3.433-3.736-5.721-6.815-5.721-2.914 0-5.993 2.125-6.896 5.721zm16.133 13.198c-3.038 0-5.666-1.634-7.184-3.677v12.545h-3.49V.532h3.366v3.35C35.217 1.758 37.926 0 41.046 0c6.075 0 10.55 4.945 10.55 10.993 0 6.13-4.475 11.073-10.55 11.073zm0-18.878c-3.9 0-7.184 3.514-7.184 7.805 0 4.331 3.284 7.886 7.184 7.886 3.941 0 7.061-3.555 7.061-7.886 0-4.29-3.12-7.805-7.061-7.805M53.116.532h3.49v21.044h-3.49zm5.048 10.555c0-6.141 5.008-11.08 11.348-11.08s11.349 4.939 11.349 11.08-5.054 10.991-11.349 10.991-11.348-4.85-11.348-10.991M70.47 3.359c-5.776-.503-8.989 3.875-8.989 8.975s4.223 9.234 9.429 9.234a9.53 9.53 0 0 0 5.451-1.699l-1.307-3.312c1.35-1.4 2.131-3.336 2.131-5.474 0-4.227-2.965-7.372-6.715-7.723z"
        style="fill:var(--color4, #8491a0)"
      />
      <path
        fill="#8491a0"
        d="m66.361 13.202 10.295 8.337h5.478l-10.029-8.337z"
        style="fill:var(--color4, #8491a0)"
      />
    </symbol>
    <symbol
      id="icon-Group-60"
      viewBox="0 0 91 32"
    >
      <path
        fill="#8491a0"
        d="M41.219 15.101c2.865-.946 3.386-3.337 3.379-5.285-.006-2.974-2.118-5.548-8.372-5.548l-11.672-.002V26.62h11.642c6.291 0 8.605-3.21 8.605-6.426 0-3.894-3.582-5.093-3.582-5.093M30.093 9.13l7.887.006c.887.156 1.533.906 1.533 1.786 0 .9-.692 1.747-1.606 1.871l-7.808.012-.005-3.674zm7.48 12.281h-7.48v-3.743l7.681.002c.953.109 1.676.897 1.676 1.833 0 1.02-.855 1.892-1.877 1.907zM70.938 4.27h19.724l-.011 4.879H76.418l.014 3.603h12.831v4.904H76.432v3.899h14.235l-.003 5.112H70.938zm-11.473.029H47.537V26.66h5.477v-9.047l6.032-.007c1.727.026 3.071 1.433 3.071 3.168v5.867l5.361-.002-.011-7.217c0-3.343-3.249-4.331-3.249-4.331s3.322-.988 3.322-4.941c0-4.836-4.181-5.851-8.076-5.851zm2.99 6.938c-.098.735-.838 1.533-1.761 1.533l-7.698.003V9.192h7.702c.919 0 1.64.674 1.757 1.557zm-41.453 10.02c-.079.002-7.487.144-10.044-.104-4.12-.401-5.578-3.434-5.578-5.91 0-3.087 2.117-5.358 5.396-5.785 1.56-.203 10.091-.107 10.181-.107l.179.002.018-5.085-.181.001-9.656.018c-1.075.065-2.857.173-4.682.915a11.4 11.4 0 0 0-4.418 3.55 11.06 11.06 0 0 0-2.218 6.665c0 .761.06 1.515.184 2.239.695 3.39 2.931 6.196 6.137 7.705 1.083.473 2.752 1.041 6.119 1.229l1.814.038 6.909.007.019-5.382-.18.002z"
        style="fill:var(--color4, #8491a0)"
      />
    </symbol>
    <symbol
      id="icon-Frame-16"
      viewBox="0 0 32 32"
    >
      <path
        fill="#5221e6"
        d="M29.828 8.236H26.9l-.673-3.034a2.794 2.794 0 0 0-2.746-2.201H13.317c-1.33 0-2.459.905-2.746 2.201l-.673 3.034h-.695V6.941c0-.73-.595-1.323-1.325-1.323H3.592c-.731 0-1.325.594-1.325 1.323v1.295h-.094a2.173 2.173 0 0 0-2.172 2.169v14.688c0 1.196.975 2.169 2.172 2.169h10.075c1.773 1.147 3.886 1.814 6.152 1.814s4.378-.667 6.151-1.814h5.278a2.173 2.173 0 0 0 2.172-2.169V10.405a2.173 2.173 0 0 0-2.172-2.169zM11.79 5.471c.16-.72.787-1.223 1.526-1.223H23.48c.739 0 1.366.503 1.526 1.223l.613 2.765h-1.07c-1.773-1.147-3.886-1.814-6.151-1.814s-4.378.667-6.152 1.814h-1.07l.613-2.765zm-8.274 1.47c0-.042.034-.075.075-.075h4.286c.042 0 .075.034.075.075v1.295H3.515zm1.503 19.072v-6.777a.624.624 0 0 0-1.25 0v6.777H2.172a.92.92 0 0 1-.922-.921V10.404c0-.508.414-.921.922-.921h8.477c-2.212 2.068-3.597 5.008-3.597 8.265s1.385 6.197 3.597 8.265H5.018zm19.15 0a10.08 10.08 0 0 1-11.542 0c-2.613-1.823-4.325-4.848-4.325-8.265s1.712-6.441 4.325-8.265a10.08 10.08 0 0 1 11.542 0c2.613 1.823 4.325 4.848 4.325 8.265s-1.712 6.441-4.325 8.265m6.581-.921a.923.923 0 0 1-.922.921h-3.68c2.212-2.068 3.597-5.008 3.597-8.265s-1.385-6.197-3.597-8.265h3.68c.509 0 .922.413.922.921z"
        style="fill:var(--color5, #5221e6)"
      />
      <path
        fill="#5221e6"
        d="M18.37 10.111c-4.248 0-7.704 3.456-7.704 7.704s3.456 7.704 7.704 7.704c.619 0 1.235-.074 1.831-.219a.586.586 0 1 0-.278-1.14 6.537 6.537 0 0 1-8.083-6.344 6.537 6.537 0 0 1 6.53-6.53 6.537 6.537 0 0 1 6.53 6.53 6.5 6.5 0 0 1-1.121 3.659.586.586 0 1 0 .972.659 7.66 7.66 0 0 0 1.323-4.318c0-4.248-3.456-7.704-7.704-7.704zM4.741 11.296c-1.307 0-2.37 1.063-2.37 2.37s1.063 2.37 2.37 2.37 2.37-1.063 2.37-2.37-1.063-2.37-2.37-2.37m0 3.468a1.098 1.098 0 0 1 0-2.194 1.098 1.098 0 0 1 0 2.194"
        style="fill:var(--color5, #5221e6)"
      />
      <path
        fill="#5221e6"
        d="M23.692 23.625a.6.6 0 0 0-.089-.213.5.5 0 0 0-.163-.164.6.6 0 0 0-.658 0q-.048.033-.09.074c-.042.041-.052.057-.073.09a.6.6 0 0 0-.089.213.57.57 0 0 0 .089.445.5.5 0 0 0 .163.163.595.595 0 0 0 .748-.073.6.6 0 0 0 .162-.535"
        style="fill:var(--color5, #5221e6)"
      />
    </symbol>
    <symbol
      id="icon-Group-62"
      viewBox="0 0 32 32"
    >
      <path
        fill="none"
        stroke="#5221e6"
        stroke-width="2"
        d="M31 16c0 8.284-6.716 15-15 15S1 24.284 1 16 7.716 1 16 1s15 6.716 15 15z"
        style="stroke:var(--color5, #5221e6)"
      />
      <path
        fill="#5221e6"
        d="m21 16-7.5 4.33v-8.66z"
        style="fill:var(--color5, #5221e6)"
      />
    </symbol>
    <symbol
      id="icon-Group-20"
      viewBox="0 0 32 32"
    >
      <path
        fill="#5221e6"
        d="m17.221 1.2 13.578 13.578 1.2-1.2L18.421 0zm2.013 6.401a2.55 2.55 0 0 0-2.803-.54L7.008 11.1a4.23 4.23 0 0 0-2.352 2.56 470 470 0 0 0-2.981 9.346A131 131 0 0 0 .5 27.045c-.148.552-.27 1.036-.355 1.427-.079.364-.144.723-.144.981v.352l2.194 2.194h.352c.259 0 .617-.065.981-.144.391-.085.875-.206 1.427-.355 1.105-.297 2.51-.709 4.039-1.175a468 468 0 0 0 9.346-2.981 4.23 4.23 0 0 0 2.56-2.352l4.039-9.423a2.55 2.55 0 0 0-.54-2.803l-5.164-5.164zm-2.135 1.021a.85.85 0 0 1 .934.18l5.164 5.164a.85.85 0 0 1 .18.934l-4.039 9.424a2.53 2.53 0 0 1-1.531 1.408 467 467 0 0 1-9.31 2.97c-1.522.464-2.906.87-3.984 1.16-.539.145-.994.258-1.347.335l-.207.043 8.671-8.672a2.547 2.547 0 0 0 2.898-4.098 2.546 2.546 0 0 0-4.098 2.898L1.758 29.04q.018-.095.043-.207c.077-.353.19-.808.335-1.347a130 130 0 0 1 1.16-3.984 467 467 0 0 1 2.97-9.31 2.53 2.53 0 0 1 1.408-1.531l9.424-4.039z"
        style="fill:var(--color5, #5221e6)"
      />
    </symbol>
    <symbol
      id="icon-Vector-3"
      viewBox="0 0 32 32"
    >
      <path
        fill="#5221e6"
        d="M30.222 23.111v7.111H17.778v-7.111zm0-21.333V16H17.778V1.778zM10.667 16H1.778v14.222h8.889zm0-14.222v7.111H1.778V1.778zM17.778 0C16.796 0 16 .796 16 1.778V16c0 .982.796 1.778 1.778 1.778h12.444c.982 0 1.778-.796 1.778-1.778V1.778C32 .796 31.204 0 30.222 0zm0 21.333c-.982 0-1.778.796-1.778 1.778v7.111c0 .982.796 1.778 1.778 1.778h12.444c.982 0 1.778-.796 1.778-1.778v-7.111c0-.982-.796-1.778-1.778-1.778zM0 16c0-.982.796-1.778 1.778-1.778h8.889c.982 0 1.778.796 1.778 1.778v14.222c0 .982-.796 1.778-1.778 1.778H1.778A1.78 1.78 0 0 1 0 30.222zM1.778 0C.796 0 0 .796 0 1.778v7.111c0 .982.796 1.778 1.778 1.778h8.889c.982 0 1.778-.796 1.778-1.778V1.778C12.445.796 11.649 0 10.667 0z"
        style="fill:var(--color5, #5221e6)"
      />
    </symbol>
    <symbol
      id="icon-Vector-6"
      viewBox="0 0 105 32"
    >
      <path
        fill="#fff"
        d="M6.48 31.6H0V0h7.24q2.24 0 3.64.24 1.44.2 2.24.88c.8.68.893 1.107 1.08 1.96q.32 1.24.32 3.36v3.28q0 1.24-.28 2.04c-.28.8-.427.96-.72 1.28q-.4.48-.88.72-.48.2-.88.28v.16q.6.16 1.08.48.52.28.88.88c.36.6.427.933.56 1.6q.24.96.24 2.48V31.6H8v-14q0-.52-.12-.68-.12-.2-.64-.2h-.76zm0-19.96h.76q.52 0 .64-.16.12-.2.12-.72V6.44q0-.52-.12-.68-.12-.2-.64-.2h-.76zm23.222 15.28q0 1.68-.28 2.68-.24 1-.96 1.56-.68.52-1.92.68-1.2.16-3.16.16-1.92 0-3.16-.16c-1.24-.16-1.467-.333-1.92-.68q-.68-.56-.96-1.56-.24-1-.24-2.68v-14.6q0-1.68.24-2.68.28-1 .96-1.52.68-.56 1.92-.72c1.24-.16 1.88-.16 3.16-.16q1.96 0 3.16.16 1.24.16 1.92.72.72.52.96 1.52.28 1 .28 2.68zm-7.04-1.12q0 .52.12.72.12.16.6.16.52 0 .64-.16.12-.2.12-.72V13.44q0-.52-.12-.68-.12-.2-.64-.2-.48 0-.6.2-.12.16-.12.68zM38.298 0v8.72q.52-.72 1.28-1 .8-.28 1.96-.28c1.16 0 1.4.093 1.88.28q.72.24 1.08.8.4.56.52 1.52.16.92.16 2.28v14.6q0 1.4-.16 2.36-.12.92-.52 1.48c-.4.56-.653.64-1.16.8q-.76.24-1.96.24-1.36 0-2.2-.28-.84-.32-1.28-1v1.08h-5.32V0zm1.32 13.44q0-.48-.12-.68-.08-.2-.52-.2-.4 0-.6.16-.16.12-.24.4v13a1 1 0 0 0 .24.44q.2.12.6.12.44 0 .52-.2.12-.2.12-.68zm14.189-9.28h-5.68V0h5.68zm0 27.44h-5.68V7.64h5.68zm16.264 0h-5.76V13.44q0-.48-.12-.68-.08-.2-.52-.2-.4 0-.6.16-.16.12-.28.4V31.6h-5.72V7.64h5.32v1.08q.44-.68 1.28-.96.84-.32 2.2-.32 1.2 0 2 .24.84.24 1.32.8c.48.56.546.88.68 1.52q.2.92.2 2.32zm8.854 0h-5.8v-5.64h5.8zM104.573 0l-3.28 31.6h-8.16l-1.08-22.92h-.16l-1.32 22.92h-8.28L79.853 0h6.52l.68 22.16h.16L88.173 0h8l.68 22.16h.16l1-22.16z"
        style="fill:var(--color1, #fff)"
      />
    </symbol>
    <symbol
      id="icon-dribbleline-mobile"
      viewBox="0 0 284 32"
    >
      <path d="M0 7.111A7.11 7.11 0 0 1 7.111 0h270.222a7.11 7.11 0 0 1 7.111 7.111V32H0z" />
    </symbol>
    <symbol
      id="icon-dribbleline-tablet"
      viewBox="0 0 612 32"
    >
      <path d="M0 7.111A7.11 7.11 0 0 1 7.111 0h597.333a7.11 7.11 0 0 1 7.111 7.111V32H-.001z" />
    </symbol>
    <symbol
      id="icon-dribbleline-desktop"
      viewBox="0 0 956 32"
    >
      <path d="M0 7.111A7.11 7.11 0 0 1 7.111 0h942.222a7.11 7.11 0 0 1 7.111 7.111V32H0z" />
    </symbol>
    <symbol
      id="icon-dribble-circle"
      viewBox="0 0 32 32"
    >
      <path d="M32 16c0 8.837-7.163 16-16 16S0 24.837 0 16 7.163 0 16 0s16 7.163 16 16" />
    </symbol>
    <symbol
      id="icon-boxes"
      viewBox="0 0 32 32"
    >
      <path
        d="M30.222 23.111v7.111H17.778v-7.111zm0-21.333V16H17.778V1.778zM10.667 16H1.778v14.222h8.889zm0-14.222v7.111H1.778V1.778zM17.778 0C16.796 0 16 .796 16 1.778V16c0 .982.796 1.778 1.778 1.778h12.444c.982 0 1.778-.796 1.778-1.778V1.778C32 .796 31.204 0 30.222 0zm0 21.333c-.982 0-1.778.796-1.778 1.778v7.111c0 .982.796 1.778 1.778 1.778h12.444c.982 0 1.778-.796 1.778-1.778v-7.111c0-.982-.796-1.778-1.778-1.778zM0 16c0-.982.796-1.778 1.778-1.778h8.889c.982 0 1.778.796 1.778 1.778v14.222c0 .982-.796 1.778-1.778 1.778H1.778A1.78 1.78 0 0 1 0 30.222zM1.778 0C.796 0 0 .796 0 1.778v7.111c0 .982.796 1.778 1.778 1.778h8.889c.982 0 1.778-.796 1.778-1.778V1.778C12.445.796 11.649 0 10.667 0z"
      />
    </symbol>
    <symbol
      id="icon-cbre"
      viewBox="0 0 130 32"
    >
      <path
        d="M58.884 15.478c4.094-1.351 4.836-4.767 4.827-7.55C63.703 3.679 60.685.003 51.752.003L35.078 0v31.934h16.631c8.987 0 12.293-4.586 12.293-9.18 0-5.563-5.118-7.276-5.118-7.276M42.99 6.947l11.267.008c1.267.223 2.19 1.294 2.19 2.551 0 1.286-.989 2.496-2.295 2.673l-11.154.017zm10.686 17.545H42.99v-5.347l10.973.003c1.362.156 2.394 1.282 2.394 2.619 0 1.457-1.221 2.702-2.681 2.725M101.339.004h28.177l-.016 6.97h-20.332l.019 5.147h18.33v7.006h-18.33v5.57h20.335L129.518 32h-28.18V.004zM84.95.046H67.911V31.99h7.825V19.066l8.617-.01c2.468.038 4.387 2.047 4.387 4.525v8.381l7.659-.003-.015-10.31c0-4.776-4.641-6.187-4.641-6.187s4.745-1.412 4.745-7.058c0-6.908-5.973-8.359-11.537-8.359zm4.271 9.911c-.141 1.05-1.197 2.189-2.516 2.189l-10.997.004V7.035H86.71c1.313 0 2.343.962 2.51 2.225v.697zM30.003 24.271c-.113.003-10.696.206-14.349-.148-5.885-.573-7.969-4.906-7.969-8.442 0-4.409 3.024-7.654 7.709-8.264 2.229-.29 14.416-.153 14.545-.152l.256.003.026-7.264-.259.001L16.168.03c-1.536.093-4.082.247-6.689 1.307a16.34 16.34 0 0 0-6.312 5.072A15.8 15.8 0 0 0-.001 15.93c0 1.086.086 2.165.263 3.199.993 4.843 4.187 8.851 8.767 11.007 1.547.676 3.932 1.488 8.742 1.756l2.591.054 9.87.01.027-7.688-.257.003z"
      />
    </symbol>
    <symbol
      id="icon-epiq"
      viewBox="0 0 78 32"
    >
      <path
        d="M21.531 15.557c-1.528 4.65-5.266 7.27-10.319 7.27C4.927 22.827 0 17.84 0 11.456 0 5.158 4.926 0 10.999 0c5.648 0 11.084 4.65 11.042 12.385H3.652c.467 4.524 3.949 7.187 7.559 7.187 3.1 0 5.308-1.48 6.498-4.016h3.822zm-3.482-6.384c-.892-3.551-3.865-5.918-7.05-5.918-3.015 0-6.2 2.199-7.134 5.918zm16.69 13.654c-3.143 0-5.861-1.691-7.432-3.804V32h-3.61V.55h3.482v3.466C28.708 1.819 31.51 0 34.738 0c6.285 0 10.914 5.115 10.914 11.372 0 6.341-4.629 11.455-10.914 11.455zm0-19.529c-4.035 0-7.432 3.636-7.432 8.074 0 4.48 3.397 8.158 7.432 8.158 4.077 0 7.304-3.678 7.304-8.158 0-4.438-3.228-8.074-7.304-8.074M47.224.55h3.61v21.77h-3.61zm5.222 10.919c0-6.353 5.18-11.462 11.739-11.462s11.74 5.11 11.74 11.462c0 6.353-5.229 11.369-11.74 11.369s-11.739-5.017-11.739-11.37zm12.73-7.994c-5.976-.52-9.299 4.008-9.299 9.284 0 5.275 4.368 9.552 9.754 9.552a9.86 9.86 0 0 0 5.639-1.758l-1.352-3.427c1.397-1.449 2.204-3.451 2.204-5.663 0-4.372-3.067-7.627-6.946-7.99z"
      />
      <path d="m62.029 13.657 10.65 8.625h5.666L67.97 13.657z" />
    </symbol>
    <symbol
      id="icon-f"
      viewBox="0 0 32 32"
    >
      <path
        d="M30.601 0H.382a.384.384 0 0 0-.376.314.38.38 0 0 0 .244.425l27.333 8.949q.048.015.096-.003c.048-.018.056-.035.071-.064l4.079-7.566A1.39 1.39 0 0 0 31.29.181a1.4 1.4 0 0 0-.688-.182zM.007 31.633a.37.37 0 0 0 .279.358.37.37 0 0 0 .415-.183l5.258-9.74a1.4 1.4 0 0 1 1.227-.732H20.6a1.4 1.4 0 0 0 1.228-.732l4.008-7.432q.014-.026.013-.055a.1.1 0 0 0-.016-.055q-.016-.024-.04-.04c-.024-.016-.036-.014-.055-.014H1.403a1.397 1.397 0 0 0-1.394 1.394v17.23z"
      />
    </symbol>
    <symbol
      id="icon-m"
      viewBox="0 0 64 32"
    >
      <path
        d="M44.576 10.459q.352 0 .693-.045l8.852 12.876a5.23 5.23 0 1 0 1.992-1.389L47.615 9.486a5.23 5.23 0 1 0-5.923.106l-8.42 12.212a5.24 5.24 0 0 0-3.087-.063L21.809 9.592a5.23 5.23 0 1 0-5.94-.118L7.256 21.948a5.23 5.23 0 1 0 2.013 1.502l8.963-13.037a5.3 5.3 0 0 0 1.158.025l8.671 12.504a5.23 5.23 0 1 0 7.277.144l8.771-12.649q.23.02.466.02z"
      />
    </symbol>
    <symbol
      id="icon-media"
      viewBox="0 0 32 32"
    >
      <path
        stroke-width="2"
        d="M31 16c0 8.284-6.716 15-15 15S1 24.284 1 16 7.716 1 16 1s15 6.716 15 15"
      />
      <path d="m21 16-7.5 4.33v-8.66z" />
    </symbol>
    <symbol
      id="icon-pen"
      viewBox="0 0 32 32"
    >
      <path
        d="m17.221 1.2 13.578 13.578 1.2-1.2L18.421 0zm2.013 6.401a2.55 2.55 0 0 0-2.803-.54L7.008 11.1a4.23 4.23 0 0 0-2.352 2.56 468 468 0 0 0-2.981 9.346A131 131 0 0 0 .5 27.045c-.148.552-.27 1.036-.355 1.427-.079.364-.144.723-.144.981v.352l2.194 2.194h.352c.259 0 .617-.065.981-.144.391-.085.875-.206 1.427-.355 1.105-.297 2.51-.709 4.039-1.175a468 468 0 0 0 9.346-2.981 4.23 4.23 0 0 0 2.56-2.352l4.039-9.423a2.55 2.55 0 0 0-.54-2.803l-5.164-5.164zm-2.135 1.021a.85.85 0 0 1 .934.18l5.164 5.164a.85.85 0 0 1 .18.934l-4.039 9.424a2.53 2.53 0 0 1-1.531 1.408 467 467 0 0 1-9.31 2.97c-1.522.464-2.906.87-3.984 1.16a29 29 0 0 1-1.554.378l8.671-8.671a2.547 2.547 0 0 0 2.898-4.098 2.546 2.546 0 0 0-4.098 2.898l-8.672 8.672q.018-.095.043-.207c.077-.353.19-.808.335-1.347a130 130 0 0 1 1.16-3.984 467 467 0 0 1 2.97-9.31 2.53 2.53 0 0 1 1.408-1.531l9.424-4.039z"
      />
    </symbol>
    <symbol
      id="icon-pfm"
      viewBox="0 0 197 32"
    >
      <path
        d="M10.194 11.141q0-.633-.43-1.092a1.4 1.4 0 0 0-1.067-.459q-2.007 0-4.173 4.274-2.006 3.862-2.007 6.14 0 2.058 1.401 2.058 1.974 0 3.95-3.988a29 29 0 0 0 2.103-5.76q.223-.886.223-1.171zm3.854 7.976v.064a.3.3 0 0 0-.032.094q-.668 1.614-1.752 2.754-1.37 1.393-2.867 1.393-1.72 0-1.72-2.057 0-.538.095-1.045-2.133 3.102-4.651 3.102-1.497 0-2.357-1.171Q0 21.237 0 19.687q0-3.164 2.771-6.995 2.963-4.051 6.021-4.051 1.306 0 2.198 1.14.254-.95 1.02-.95 1.465 0 1.465.507 0 .096-.733 2.278-2.836 8.452-2.835 9.718 0 .601.446.601.891 0 2.054-1.614c1.163-1.614 1.173-1.614 1.195-1.614q.446 0 .446.412zM30.23 6.457q0-2.658-1.289-3.813-1.291-1.155-3.903-1.124-2.039 0-2.039.886v9.02q1.179.19 1.72.19 5.543-.03 5.511-5.159m3.759 0q-.001 6.33-8.633 6.33-1.115 0-2.357-.126v5.634q0 2.975 1.051 3.419.063.031 1.37.412.763.19.733.506-.032.38-.51.38h-8.664q-.477 0-.509-.38-.032-.315.733-.506 1.305-.38 1.37-.412 1.051-.443 1.051-3.419V5.318q0-2.976-1.051-3.419-.064-.032-1.37-.412-.765-.189-.733-.507.032-.38.509-.379h9.334q3.313 0 5.351 1.361 2.325 1.519 2.326 4.494zm7.887 16.174q-.033.38-.51.38h-6.88q-.479 0-.51-.38-.032-.253.733-.443.987-.22 1.37-.474c.383-.254.393-.633.414-1.393V3.704q0-.854-.16-1.124c-.16-.27-.425-.269-.955-.269q-1.212 0-1.211-.38 0-.411.764-.57A25 25 0 0 0 38.563.317q.223-.064.35-.064.319 0 .382.364c.063.364.064.755.064 1.535v16.142q0 3.198.414 3.418.224.127 1.37.412.764.222.733.506zm9.397-3.847v-3.528q-2.358.441-3.535 1.071-1.911 1.072-1.911 2.961 0 1.008.589 1.622c.589.614.929.614 1.609.614q1.273 0 2.262-.787c.989-.787.987-1.176.987-1.953zm5.829 2.043q-.86 2.437-2.994 2.437-2.294.001-2.803-2.311-2.422 2.311-4.906 2.311-1.593 0-2.516-.915c-.923-.915-.924-1.442-.924-2.495q0-2.873 3.122-4.295 1.784-.79 5.192-1.231.096-3-.478-3.884-.477-.788-2.166-.758-1.403.032-1.848.887l-.445 1.582q-.318.855-1.37.855-1.402 0-1.401-1.203 0-1.55 1.942-2.405 1.497-.633 3.377-.633 5.161.032 5.161 3.537v7.799q0 1.706.955 1.673.637 0 1.067-.68t.622-.68.334.142c.143.142.122.185.079.269zm12.499.011q-2.071 2.68-5.096 2.679-3.154 0-5.033-1.998t-1.879-5.202c.001-3.204.696-3.933 2.087-5.392q2.085-2.188 5.303-2.157 1.466 0 2.868.633 1.752.791 1.751 2.089 0 1.233-1.274 1.234-.765 0-1.195-.728c-.43-.728-.557-.97-.812-1.456q-.574-.759-1.593-.759-2.103 0-3.185 2.03-.828 1.62-.828 3.935 0 2.539 1.02 4.284 1.21 2.158 3.535 2.158 1.339 0 2.548-.96.254-.225 1.561-1.633.16-.16.286-.16.287 0 .287.478c0 .478-.117.628-.351.926zm11.493-7.327q-.192-3.761-3.026-3.731-3.058.031-3.664 4.368h3.982q2.74 0 2.708-.638zm3.026 1.333q0 .35-.351.412h-9.492q-.032.444-.032.665 0 2.596.955 4.21 1.21 1.994 3.632 1.994 1.592 0 2.707-.696.573-.38 1.688-1.551a.4.4 0 0 1 .286-.126q.415 0 .415.38a.56.56 0 0 1-.096.284q-1.816 3.07-5.734 3.039-3.123-.032-5.033-2.01c-1.91-1.978-1.911-3.002-1.911-5.049q0-3.165 1.879-5.349 2.007-2.31 5.129-2.278 2.388 0 3.982 1.424 1.942 1.709 1.975 4.652zm18.667-12.786q0 .474-.335.839c-.335.365-.494.364-.813.364q-.764 0-1.21-1.108c-.446-1.108-.69-1.108-1.178-1.108q-1.658 0-2.613 1.938-.35.667-1.115 3.337l-.859 2.987h3.153q.415 0 .415.391 0 .653-.702.653h-3.12L91.224 22.28q-1.115 4.166-2.198 6.154Q87.05 32 84.087 32q-1.114 0-1.975-.633c-.861-.633-.86-.982-.86-1.678q0-1.424 1.289-1.424.882 0 1.101.696.063.252.063 1.361 0 .728.671.728 1.344 0 2.367-2.402.448-1.043 1.119-3.571l3.903-14.727h-3.313q-.287 0-.287-.359 0-.685.606-.685h3.185q1.273-4.083 2.483-5.982Q96.51 0 99.568 0q1.115 0 2.07.474 1.147.57 1.147 1.583zm3.06 10.128q0-2.596-1.752-2.596-2.007 0-3.694 4.21-1.435 3.578-1.434 5.982 0 2.754 1.88 2.754 1.974 0 3.631-4.273 1.37-3.608 1.37-6.077zm2.325 1.677q.001 3.292-1.975 6.235-2.23 3.323-5.384 3.324-2.07 0-3.185-1.647-1.02-1.423-1.02-3.545 0-3.259 2.007-6.266 2.262-3.355 5.383-3.355 2.07 0 3.186 1.645.987 1.457.987 3.609zm12.899-3.513q0 .57-.335 1.045-.334.474-.876.474c-.542 0-.637-.221-.828-.665q-.288-.665-.764-.665-1.753 0-5.734 12.47h-2.485q.956-3.197 1.911-6.425 1.497-5.096 1.497-5.729 0-.538-.477-.538-.86 0-1.625 1.045-.254.317-1.018 1.741-.192.38-.542.38-.478 0-.478-.38l.031-.127q.414-1.581 1.625-2.88 1.369-1.424 2.898-1.424 1.688 0 1.688 1.931 0 .602-.222 1.487a56 56 0 0 0-.415 1.488q2.421-4.905 4.555-4.906.702 0 1.148.491c.446.491.446.722.446 1.186zm29.082 12.281q-.031.38-.509.38h-8.41q-.479 0-.509-.38-.032-.315.732-.506 1.305-.38 1.37-.412 1.051-.442 1.051-3.418V3.356L135.659 22.6q-.285.665-.445.665c-.16 0-.285-.285-.541-.854l-7.072-16.143q-.574-1.297-1.147-2.184l.192 14.212q.032 1.52.128 2.058.223 1.044.924 1.361.064.031 1.369.412.764.19.733.506-.032.38-.511.38h-6.816q-.478 0-.509-.38-.033-.315.733-.506 1.305-.38 1.37-.412.7-.316.923-1.425.128-.537.128-1.994l.159-15.573q-.51-.41-1.497-.823a24 24 0 0 1-1.37-.412q-.765-.19-.733-.507.031-.38.509-.379h3.822q2.166.032 2.485.206.318.175.956 1.662l6.785 15.794 7.327-17.187q.19-.475.859-.475h5.225q.479 0 .509.379.03.317-.732.507-1.307.38-1.37.412Q147 2.344 147 5.319v12.977q0 2.976 1.052 3.419.063.031 1.37.412.763.19.732.506zm12.169-6.473q0-2.633-.861-4.316-1.115-2.188-3.471-2.188-2.358 0-3.471 2.253-.86 1.681-.86 4.283 0 2.538.86 4.219 1.146 2.158 3.471 2.158 2.357 0 3.471-2.158.86-1.681.861-4.252zm3.057-.19q0 3.235-2.102 5.393c-2.102 2.158-3.186 2.157-5.352 2.157s-3.918-.677-5.254-2.03q-2.009-2.03-2.008-5.297 0-3.236 2.103-5.33 2.102-2.093 5.352-2.092 3.088 0 5.176 2.061 2.085 2.061 2.085 5.138m27.491 6.664q-.033.38-.511.379h-6.88q-.479 0-.509-.379-.03-.252.732-.443.987-.22 1.386-.488.398-.269.398-3.395v-4.104q0-1.927-.477-2.811-.638-1.2-2.454-1.2-1.53 0-2.611.932-1.084.932-1.083 2.289v4.893q.03 1.894.031 2.084.065 1.137.383 1.326.317.19 1.37.442.763.189.733.474-.033.38-.509.379h-6.881q-.479 0-.509-.379-.032-.252.732-.443.986-.22 1.386-.488.398-.269.398-3.395v-4.104q0-1.927-.479-2.811-.637-1.2-2.452-1.2-1.529 0-2.611.932c-1.082.932-1.083 1.384-1.083 2.289v4.893q0 3.19.413 3.41.222.126 1.37.41.764.221.733.505-.034.38-.509.379h-6.881q-.479 0-.509-.38-.032-.252.763-.412.989-.189 1.371-.522c.382-.333.383-1.356.383-3.403v-6.045q.001-.854-.16-1.124-.16-.269-.956-.269-1.21 0-1.21-.379-.001-.412.763-.57a24 24 0 0 0 3.626-1.045q.287-.063.383-.063.286 0 .351.412.03.285.063 1.614.698-.903 2.052-1.464a7.2 7.2 0 0 1 2.783-.562q3.31 0 4.137 2.438 1.908-2.438 5.344-2.438 2.61 0 3.596 1.422 1.08 1.548 1.08 4.863v3.222q.001 1.8.032 2.084.065 1.137.383 1.327c.318.19.669.274 1.371.442q.763.189.732.474zm2.848-1.429a.7.7 0 0 0-.26-.036h-.109v.493h.175q.155 0 .243-.063c.088-.063.088-.108.088-.201q0-.139-.138-.193zm-.815 1.363v-1.698l.475.001.353.003q.201.015.337.088.228.124.228.405 0 .214-.12.309a.55.55 0 0 1-.296.114.6.6 0 0 1 .242.098q.151.122.151.381v.151a.3.3 0 0 0 .017.1l.015.048h-.428a1.3 1.3 0 0 1-.028-.235.7.7 0 0 0-.028-.207.2.2 0 0 0-.125-.125.5.5 0 0 0-.152-.027l-.099-.006h-.095v.601h-.447zm-.23-1.739a1.22 1.22 0 0 0-.369.887q0 .532.375.904.372.372.9.372.524 0 .897-.374.372-.377.372-.902a1.22 1.22 0 0 0-.371-.887 1.2 1.2 0 0 0-.899-.382q-.532 0-.906.382zm1.985 1.986q-.45.432-1.079.432-.65 0-1.097-.443a1.48 1.48 0 0 1-.445-1.089q0-.672.481-1.116a1.52 1.52 0 0 1 1.061-.416q.638 0 1.089.449c.451.449.452.66.452 1.082q0 .652-.462 1.099z"
      />
    </symbol>
    <symbol
      id="icon-photo"
      viewBox="0 0 32 32"
    >
      <path
        d="M29.828 8.236H26.9l-.673-3.034a2.794 2.794 0 0 0-2.746-2.201H13.317c-1.33 0-2.459.905-2.746 2.201l-.673 3.034h-.695V6.941c0-.73-.595-1.323-1.325-1.323H3.592c-.731 0-1.325.594-1.325 1.323v1.295h-.094a2.173 2.173 0 0 0-2.172 2.169v14.688c0 1.196.975 2.169 2.172 2.169h10.075c1.773 1.147 3.886 1.814 6.152 1.814s4.378-.667 6.151-1.814h5.278a2.173 2.173 0 0 0 2.172-2.169V10.405a2.173 2.173 0 0 0-2.172-2.169zM11.79 5.471c.16-.72.787-1.223 1.526-1.223H23.48c.739 0 1.366.503 1.526 1.223l.613 2.765h-1.07c-1.773-1.147-3.886-1.814-6.151-1.814s-4.378.667-6.152 1.814h-1.07l.613-2.765zm-8.274 1.47c0-.042.034-.075.075-.075h4.286c.042 0 .075.034.075.075v1.295H3.515zm1.503 19.072v-6.777a.624.624 0 0 0-1.25 0v6.777H2.172a.92.92 0 0 1-.922-.921V10.404c0-.508.414-.921.922-.921h8.477c-2.212 2.068-3.597 5.008-3.597 8.265s1.385 6.197 3.597 8.265H5.018zm19.15 0a10.08 10.08 0 0 1-11.542 0c-2.613-1.823-4.325-4.848-4.325-8.265s1.712-6.441 4.325-8.265a10.08 10.08 0 0 1 11.542 0c2.613 1.823 4.325 4.848 4.325 8.265s-1.712 6.441-4.325 8.265m6.581-.921a.923.923 0 0 1-.922.921h-3.68c2.212-2.068 3.597-5.008 3.597-8.265s-1.385-6.197-3.597-8.265h3.68c.509 0 .922.413.922.921z"
      />
      <path
        d="M18.37 10.111c-4.248 0-7.704 3.456-7.704 7.704s3.456 7.704 7.704 7.704c.619 0 1.235-.074 1.831-.219a.586.586 0 1 0-.278-1.14 6.537 6.537 0 0 1-8.083-6.344 6.537 6.537 0 0 1 6.53-6.53 6.537 6.537 0 0 1 6.53 6.53 6.5 6.5 0 0 1-1.121 3.659.587.587 0 0 0 .971.659 7.66 7.66 0 0 0 1.323-4.318c0-4.248-3.456-7.704-7.704-7.704zM4.741 11.296c-1.307 0-2.37 1.063-2.37 2.37s1.063 2.37 2.37 2.37 2.37-1.063 2.37-2.37-1.063-2.37-2.37-2.37m0 3.468a1.098 1.098 0 0 1 0-2.194 1.098 1.098 0 0 1 0 2.194"
      />
      <path
        d="M23.692 23.625a.6.6 0 0 0-.089-.213.5.5 0 0 0-.163-.164.7.7 0 0 0-.214-.089.6.6 0 0 0-.445.089q-.048.033-.09.074c-.042.041-.052.057-.073.09a.6.6 0 0 0-.089.213.57.57 0 0 0 .089.445.5.5 0 0 0 .163.163.595.595 0 0 0 .749-.073.6.6 0 0 0 .162-.535"
      />
    </symbol>
    <symbol
      id="icon-tlines"
      viewBox="0 0 32 32"
    >
      <path d="M29.696 0H15.465C6.924 0 0 5.947 0 14.488v10.04C6.234 11.784 21.387 2.829 29.696 0" />
      <path d="M1.525 32h12.612c8.541 0 15.465-6.924 15.465-15.465V.739C16.435 8.05 7.425 19.43 1.525 32" />
    </symbol>
    <symbol
      id="icon-Group-65"
      viewBox="0 0 32 32"
    >
      <path
        d="M0 0h32v32H0z"
        style="fill:var(--color1, #000)"
      />
      <path
        fill="#c4c4c4"
        d="M4 8h24v4H4zm6.667 10.667H28v4H10.667z"
        style="fill:var(--color2, #c4c4c4)"
      />
    </symbol>
  </defs>
</svg>
